<?xml version="1.0" encoding="utf-8"?>
<!-- Generator: Adobe Illustrator 17.1.0, SVG Export Plug-In . SVG Version: 6.00 Build 0)  -->
<!DOCTYPE svg PUBLIC "-//W3C//DTD SVG 1.1//EN" "http://www.w3.org/Graphics/SVG/1.1/DTD/svg11.dtd">
<svg version="1.1" xmlns="http://www.w3.org/2000/svg" xmlns:xlink="http://www.w3.org/1999/xlink" x="0px" y="0px"
	 viewBox="-8.3 -8.3 300 300" enable-background="new -8.3 -8.3 300 300" xml:space="preserve">
<g id="youtube" display="none">
	<g id="Facebook">
		<path display="inline" fill="#FFFFFF" d="M82.7,100.5h27V88.3v-12v-2c0-11.5,0.3-29.4,8.7-40.4c8.8-11.7,21-19.6,41.9-19.6
			c34,0,48.4,4.8,48.4,4.8L202,59c0,0-11.2-3.3-21.8-3.3s-19.9,3.8-19.9,14.2v4.2v14v12.2h43l-3,39.1h-40v135.7h-50.6V139.6h-27
			L82.7,100.5L82.7,100.5z"/>
	</g>
	<g display="inline">
		<path fill="#FFFFFF" d="M141.7-8.3c-82.8,0-150,67.2-150,150c0,82.8,67.2,150,150,150s150-67.2,150-150
			C291.7,58.9,224.6-8.3,141.7-8.3z M209.5,223H74c-22.3,0-40.6-18.3-40.6-40.6v-81.3c0-22.3,18.3-40.6,40.6-40.6h135.4
			c22.3,0,40.6,18.3,40.6,40.6v81.3C250.1,204.7,231.8,223,209.5,223z"/>
		<polygon fill="#FFFFFF" points="114.6,195.9 182.4,141.7 114.6,87.6 		"/>
		<path fill="#FFFFFF" d="M114.6,195.9V87.6l67.7,54.2L114.6,195.9z"/>
	</g>
</g>
<g id="Layer_7" display="none">
</g>
<g id="rss" display="none">
	<g display="inline">
		<path fill="#FFFFFF" d="M141.7-8.3c-82.8,0-150,67.2-150,150c0,82.8,67.2,150,150,150s150-67.2,150-150
			C291.7,58.9,224.6-8.3,141.7-8.3z M77.3,229.7c-12.9,0-23.4-10.5-23.4-23.4c0-12.9,10.5-23.4,23.4-23.4
			c12.9,0,23.4,10.5,23.4,23.4C100.7,219.3,90.2,229.7,77.3,229.7z M136.1,229.9c0-22.1-8.6-42.9-24.1-58.5
			c-15.5-15.6-36.1-24.2-58.1-24.2v-33.8c63.9,0,116,52.2,116,116.5H136.1z M195.8,229.9c0-78.6-63.6-142.6-141.8-142.6V53.5
			c96.9,0,175.7,79.2,175.7,176.4H195.8z"/>
	</g>
</g>
<g id="linkedin" display="none">
	<g display="inline">
		<path fill="#FFFFFF" d="M141.7-8.3c-82.8,0-150,67.2-150,150c0,82.8,67.2,150,150,150s150-67.2,150-150
			C291.7,58.9,224.6-8.3,141.7-8.3z M90.8,230.8h-40V110.6h40V230.8z M70.9,94.2h-0.3c-13.4,0-22.1-9.2-22.1-20.8
			c0-11.8,8.9-20.8,22.6-20.8c13.7,0,22.1,9,22.3,20.8C93.5,84.9,84.8,94.2,70.9,94.2z M234.9,230.8h-40v-64.3
			c0-16.2-5.8-27.2-20.2-27.2c-11,0-17.6,7.4-20.5,14.6c-1.1,2.6-1.3,6.2-1.3,9.7v67.1h-40c0,0,0.5-108.9,0-120.2h40v17
			c5.3-8.2,14.8-19.9,36-19.9c26.3,0,46,17.2,46,54.1V230.8z"/>
		<path d="M152.9,128v-0.4c-0.1,0.1-0.2,0.3-0.3,0.4H152.9z"/>
	</g>
</g>
<g id="google_x2B_" display="none">
	<g display="inline">
		<path fill="#FFFFFF" d="M98.3,167.7c-20.1,1.4-35.7,14.4-34.7,29.1c1,14.7,18.1,25.5,38.3,24.1c20.1-1.4,35.7-14.4,34.7-29.1
			C135.5,177.1,118.4,166.4,98.3,167.7z"/>
		<path fill="#FFFFFF" d="M120.3,92.1c-4.6-16.8-18-27.8-30-24.5c-12,3.3-18,19.5-13.4,36.3c4.6,16.8,18,27.8,30,24.5
			C118.9,125.2,124.9,108.9,120.3,92.1z"/>
		<path fill="#FFFFFF" d="M141.7-8.3c-82.8,0-150,67.2-150,150c0,82.8,67.2,150,150,150s150-67.2,150-150
			C291.7,58.9,224.6-8.3,141.7-8.3z M94,233c0,0-50.3,1.8-50.3-36.1c0-37.9,57.1-36.4,60-36.4c-0.7-8.7-6.5-7.2-6.5-11.5
			c0-4.3,0-10.6,0-10.6s-43.2,4.8-43.2-37c0-41.8,49.4-43,49.4-43s44.9,0,48.8,0c0,7.4-22.3,4.8-22.3,8.8
			c12.6,5.7,14.1,15.3,14.1,31.4c0,26.7-25,30-25,41.4c0,11.4,33.2,20.5,33.2,48.6C152.2,235.6,94,233,94,233z M243.7,102.4h-34
			v33.9h-10v-33.9h-33.9v-10h33.9v-34h10v34h34V102.4z"/>
		<path fill="#FFFFFF" d="M76.9,103.9c-4.6-16.8,1.5-33.1,13.4-36.3c12-3.3,25.4,7.7,30,24.5c4.6,16.8-1.4,33.1-13.4,36.3
			C94.9,131.7,81.5,120.7,76.9,103.9z M101.9,220.9c-20.1,1.4-37.3-9.4-38.3-24.1c-1-14.7,14.5-27.7,34.7-29.1
			c20.1-1.4,37.3,9.4,38.3,24.1C137.5,206.5,122,219.5,101.9,220.9z"/>
	</g>
</g>
<g id="facebook" display="none">
	<g display="inline">
		<path fill="#FFFFFF" d="M141.7-8.3c-82.8,0-150,67.2-150,150c0,82.8,67.2,150,150,150s150-67.2,150-150
			C291.7,58.9,224.6-8.3,141.7-8.3z M180.5,112l-2,26.2h-26.9v91.2h-34v-91.2H99.4V112h0h18.1v-8.2v-8.1v-1.3
			c0-7.8,0.2-19.7,5.8-27.2c5.9-7.9,14.1-13.2,28.1-13.2c22.9,0,32.5,3.3,32.5,3.3l-4.5,26.9c0,0-7.6-2.2-14.6-2.2
			s-13.4,2.5-13.4,9.6v2.9v9.4v8.2H180.5z"/>
	</g>
</g>
<g id="twitter" display="none">
	<g display="inline">
		<path fill="#FFFFFF" d="M141.7-8.3c-82.8,0-150,67.2-150,150c0,82.8,67.2,150,150,150s150-67.2,150-150
			C291.7,58.9,224.6-8.3,141.7-8.3z M228.4,97.3c0.1,1.9,0.1,3.8,0.1,5.8c0,59.1-45,127.3-127.3,127.3c-25.3,0-48.8-7.4-68.6-20.1
			c3.5,0.4,7.1,0.6,10.7,0.6c21,0,40.2-7.1,55.5-19.1c-19.6-0.4-36.1-13.3-41.8-31.1c2.7,0.5,5.5,0.8,8.4,0.8c4.1,0,8-0.5,11.8-1.6
			c-20.5-4.1-35.9-22.2-35.9-43.9c0-0.2,0-0.4,0-0.6c6,3.4,12.9,5.4,20.3,5.6c-12-8-19.9-21.7-19.9-37.2c0-8.2,2.2-15.9,6.1-22.5
			c22.1,27.1,55,44.9,92.2,46.7c-0.8-3.3-1.2-6.7-1.2-10.2c0-24.7,20-44.7,44.7-44.7c12.9,0,24.5,5.4,32.6,14.1
			c10.2-2,19.8-5.7,28.4-10.9c-3.3,10.4-10.4,19.2-19.7,24.7c9-1.1,17.7-3.5,25.7-7C244.7,83.1,237.2,91,228.4,97.3z"/>
	</g>
</g>
<g id="Creative_Commons_License" display="none">
	
		<text id="Creative_Commons_License_1_" transform="matrix(1 0 0 1 -605 1683.0439)" display="inline" font-family="'MyriadPro-Regular'" font-size="12">With assets by Icomoon, Visual Idiot, Piotr Kwiatkowski / CC BY</text>
</g>
<g id="guides">
	<g>
	</g>
</g>
<g id="youtube_square" display="none">
	<g display="inline">
		<polygon fill="#FFFFFF" points="116.4,192.3 179.7,141.7 116.4,91.1 		"/>
		<path fill="#FFFFFF" d="M-8.3-8.3v300h300v-300H-8.3z M243,179.7c0,20.9-17.1,38-38,38H78.5c-20.9,0-38-17.1-38-38v-75.9
			c0-20.9,17.1-38,38-38H205c20.9,0,38,17.1,38,38V179.7z"/>
		<path fill="#FFFFFF" d="M116.4,192.3V91.1l63.3,50.6L116.4,192.3z"/>
	</g>
</g>
<g id="rss_square" display="none">
	<g display="inline">
		<path fill="#FFFFFF" d="M-8.3-8.3v300h300v-300H-8.3z M82.2,222c-11.9,0-21.6-9.7-21.6-21.6c0-12,9.7-21.6,21.6-21.6
			c11.9,0,21.6,9.7,21.6,21.6C103.8,212.4,94.1,222,82.2,222z M136.5,222.2c0-20.4-7.9-39.6-22.2-54c-14.3-14.4-33.4-22.3-53.7-22.3
			v-31.2c59.1,0,107.1,48.3,107.1,107.6H136.5z M191.7,222.2c0-72.7-58.8-131.8-131-131.8V59.2c89.5,0,162.3,73.1,162.3,163H191.7z"
			/>
	</g>
</g>
<g id="twitter_square" display="none">
	<g display="inline">
		<path fill="#FFFFFF" d="M-8.3-8.3v300h300v-300H-8.3z M221.7,99.9c0.1,1.8,0.1,3.5,0.1,5.3c0,54.5-41.5,117.3-117.3,117.3
			c-23.3,0-45-6.8-63.2-18.5c3.2,0.4,6.5,0.6,9.8,0.6c19.3,0,37.1-6.6,51.2-17.7c-18-0.3-33.3-12.3-38.5-28.6
			c2.5,0.5,5.1,0.7,7.8,0.7c3.8,0,7.4-0.5,10.9-1.4c-18.9-3.8-33.1-20.5-33.1-40.4c0-0.2,0-0.3,0-0.5c5.6,3.1,11.9,4.9,18.7,5.2
			c-11.1-7.4-18.3-20-18.3-34.3c0-7.6,2-14.6,5.6-20.7c20.3,25,50.7,41.4,85,43.1c-0.7-3-1.1-6.2-1.1-9.4
			c0-22.8,18.5-41.2,41.2-41.2c11.9,0,22.6,5,30.1,13c9.4-1.8,18.2-5.3,26.2-10c-3.1,9.6-9.6,17.7-18.1,22.8
			c8.3-1,16.3-3.2,23.7-6.5C236.7,86.8,229.7,94.1,221.7,99.9z"/>
	</g>
</g>
<g id="facebook_square" display="none">
	<g display="inline">
		<path fill="#FFFFFF" d="M-8.3-8.3v300h300v-300H-8.3z M175.3,114.5l-1.9,24.1h-24.7v83.7h-31.2v-83.7h-16.7v-24.1h0h16.7v-7.6
			v-7.4v-1.2c0-7.1,0.2-18.1,5.4-25c5.5-7.2,13-12.1,25.9-12.1c21,0,29.9,3,29.9,3l-4.2,24.7c0,0-6.9-2-13.4-2s-12.3,2.3-12.3,8.8
			v2.6v8.6v7.6H175.3z"/>
	</g>
</g>
<g id="google_x2B__1_" display="none">
	<g display="inline">
		<path fill="#FFFFFF" d="M122.9,91.7c-4.3-15.7-16.8-25.9-28-22.8c-11.2,3-16.8,18.2-12.5,33.9c4.3,15.7,16.8,25.9,28,22.9
			C121.5,122.5,127.2,107.4,122.9,91.7z"/>
		<path fill="#FFFFFF" d="M102.3,162.2c-18.8,1.3-33.3,13.4-32.3,27.1c0.9,13.7,16.9,23.8,35.7,22.5c18.8-1.3,33.3-13.4,32.3-27.1
			C137.1,171,121.1,161,102.3,162.2z"/>
		<path fill="#FFFFFF" d="M-8.3-8.3v300h300v-300H-8.3z M98.4,223.1c0,0-46.9,1.7-46.9-33.6c0-35.3,53.2-33.9,56-33.9
			c-0.7-8.1-6.1-6.7-6.1-10.7c0-4,0-9.9,0-9.9s-40.3,4.5-40.3-34.5c0-39,46.1-40.1,46.1-40.1s41.9,0,45.5,0c0,6.9-20.8,4.5-20.8,8.2
			c11.8,5.3,13.1,14.3,13.1,29.3c0,24.9-23.3,28-23.3,38.6c0,10.6,30.9,19.1,30.9,45.4C152.6,225.6,98.4,223.1,98.4,223.1z
			 M238,101.3h-31.7V133H197v-31.6h-31.6V92H197V60.3h9.3V92H238V101.3z"/>
		<path fill="#FFFFFF" d="M82.4,102.7c-4.3-15.7,1.4-30.8,12.5-33.9c11.2-3,23.7,7.2,28,22.8c4.3,15.7-1.4,30.8-12.5,33.9
			C99.2,128.6,86.6,118.4,82.4,102.7z M105.7,211.8c-18.8,1.3-34.8-8.8-35.7-22.5c-0.9-13.7,13.5-25.8,32.3-27.1
			c18.8-1.3,34.8,8.8,35.7,22.5C138.9,198.4,124.5,210.6,105.7,211.8z"/>
	</g>
</g>
<g id="linked_in_square">
	<g>
		<path fill="#FFFFFF" d="M-8.3-8.3v300h300v-300H-8.3z M95.9,222.1h-36V113.7h36V222.1z M77.8,98.9h-0.2
			c-12.1,0-19.9-8.3-19.9-18.7c0-10.6,8.1-18.7,20.4-18.7c12.3,0,19.9,8.1,20.1,18.7C98.2,90.5,90.4,98.9,77.8,98.9z M225.8,222.1
			h-36v-58c0-14.6-5.2-24.5-18.3-24.5c-10,0-15.9,6.7-18.5,13.2c-1,2.3-1.2,5.5-1.2,8.8v60.5h-36c0,0,0.5-98.2,0-108.4h36V129
			c4.8-7.4,13.4-17.9,32.5-17.9c23.7,0,41.5,15.5,41.5,48.8V222.1z"/>
		<path d="M151.8,129.4V129c-0.1,0.1-0.2,0.2-0.2,0.4H151.8z"/>
	</g>
</g>
</svg>
