<?xml version="1.0" encoding="utf-8"?>
<!-- Generator: Adobe Illustrator 17.1.0, SVG Export Plug-In . SVG Version: 6.00 Build 0)  -->
<!DOCTYPE svg PUBLIC "-//W3C//DTD SVG 1.1//EN" "http://www.w3.org/Graphics/SVG/1.1/DTD/svg11.dtd">
<svg version="1.1" xmlns="http://www.w3.org/2000/svg" xmlns:xlink="http://www.w3.org/1999/xlink" x="0px" y="0px"
	 viewBox="-8.3 -8.3 300 300" enable-background="new -8.3 -8.3 300 300" xml:space="preserve">
<g id="rss" display="none">
	<g display="inline">
		<path fill="#FFFFFF" d="M141.7-8.3c-82.8,0-150,67.2-150,150c0,82.8,67.2,150,150,150s150-67.2,150-150
			C291.7,58.9,224.6-8.3,141.7-8.3z M77.3,229.7c-12.9,0-23.4-10.5-23.4-23.4c0-12.9,10.5-23.4,23.4-23.4
			c12.9,0,23.4,10.5,23.4,23.4C100.7,219.3,90.2,229.7,77.3,229.7z M136.1,229.9c0-22.1-8.6-42.9-24.1-58.5
			c-15.5-15.6-36.1-24.2-58.1-24.2v-33.8c63.9,0,116,52.2,116,116.5H136.1z M195.8,229.9c0-78.6-63.6-142.6-141.8-142.6V53.5
			c96.9,0,175.7,79.2,175.7,176.4H195.8z"/>
	</g>
</g>
<g id="linkedin" display="none">
	<g display="inline">
		<path fill="#FFFFFF" d="M141.7-8.3c-82.8,0-150,67.2-150,150c0,82.8,67.2,150,150,150s150-67.2,150-150
			C291.7,58.9,224.6-8.3,141.7-8.3z M90.8,230.8h-40V110.6h40V230.8z M70.9,94.2h-0.3c-13.4,0-22.1-9.2-22.1-20.8
			c0-11.8,8.9-20.8,22.6-20.8c13.7,0,22.1,9,22.3,20.8C93.5,84.9,84.8,94.2,70.9,94.2z M234.9,230.8h-40v-64.3
			c0-16.2-5.8-27.2-20.2-27.2c-11,0-17.6,7.4-20.5,14.6c-1.1,2.6-1.3,6.2-1.3,9.7v67.1h-40c0,0,0.5-108.9,0-120.2h40v17
			c5.3-8.2,14.8-19.9,36-19.9c26.3,0,46,17.2,46,54.1V230.8z"/>
		<path d="M152.9,128v-0.4c-0.1,0.1-0.2,0.3-0.3,0.4H152.9z"/>
	</g>
</g>
<g id="google_x2B_" display="none">
	<g display="inline">
		<path fill="#FFFFFF" d="M98.3,167.7c-20.1,1.4-35.7,14.4-34.7,29.1c1,14.7,18.1,25.5,38.3,24.1c20.1-1.4,35.7-14.4,34.7-29.1
			C135.5,177.1,118.4,166.4,98.3,167.7z"/>
		<path fill="#FFFFFF" d="M120.3,92.1c-4.6-16.8-18-27.8-30-24.5c-12,3.3-18,19.5-13.4,36.3c4.6,16.8,18,27.8,30,24.5
			C118.9,125.2,124.9,108.9,120.3,92.1z"/>
		<path fill="#FFFFFF" d="M141.7-8.3c-82.8,0-150,67.2-150,150c0,82.8,67.2,150,150,150s150-67.2,150-150
			C291.7,58.9,224.6-8.3,141.7-8.3z M94,233c0,0-50.3,1.8-50.3-36.1c0-37.9,57.1-36.4,60-36.4c-0.7-8.7-6.5-7.2-6.5-11.5
			c0-4.3,0-10.6,0-10.6s-43.2,4.8-43.2-37c0-41.8,49.4-43,49.4-43s44.9,0,48.8,0c0,7.4-22.3,4.8-22.3,8.8
			c12.6,5.7,14.1,15.3,14.1,31.4c0,26.7-25,30-25,41.4c0,11.4,33.2,20.5,33.2,48.6C152.2,235.6,94,233,94,233z M243.7,102.4h-34
			v33.9h-10v-33.9h-33.9v-10h33.9v-34h10v34h34V102.4z"/>
		<path fill="#FFFFFF" d="M76.9,103.9c-4.6-16.8,1.5-33.1,13.4-36.3c12-3.3,25.4,7.7,30,24.5c4.6,16.8-1.4,33.1-13.4,36.3
			C94.9,131.7,81.5,120.7,76.9,103.9z M101.9,220.9c-20.1,1.4-37.3-9.4-38.3-24.1c-1-14.7,14.5-27.7,34.7-29.1
			c20.1-1.4,37.3,9.4,38.3,24.1C137.5,206.5,122,219.5,101.9,220.9z"/>
	</g>
</g>
<g id="facebook">
	<g>
		<path fill="#FFFFFF" d="M141.7-8.3c-82.8,0-150,67.2-150,150c0,82.8,67.2,150,150,150s150-67.2,150-150
			C291.7,58.9,224.6-8.3,141.7-8.3z M180.5,112l-2,26.2h-26.9v91.2h-34v-91.2H99.4V112h0h18.1v-8.2v-8.1v-1.3
			c0-7.8,0.2-19.7,5.8-27.2c5.9-7.9,14.1-13.2,28.1-13.2c22.9,0,32.5,3.3,32.5,3.3l-4.5,26.9c0,0-7.6-2.2-14.6-2.2
			s-13.4,2.5-13.4,9.6v2.9v9.4v8.2H180.5z"/>
	</g>
</g>
<g id="twitter" display="none">
	<g display="inline">
		<path fill="#FFFFFF" d="M141.7-8.3c-82.8,0-150,67.2-150,150c0,82.8,67.2,150,150,150s150-67.2,150-150
			C291.7,58.9,224.6-8.3,141.7-8.3z M228.4,97.3c0.1,1.9,0.1,3.8,0.1,5.8c0,59.1-45,127.3-127.3,127.3c-25.3,0-48.8-7.4-68.6-20.1
			c3.5,0.4,7.1,0.6,10.7,0.6c21,0,40.2-7.1,55.5-19.1c-19.6-0.4-36.1-13.3-41.8-31.1c2.7,0.5,5.5,0.8,8.4,0.8c4.1,0,8-0.5,11.8-1.6
			c-20.5-4.1-35.9-22.2-35.9-43.9c0-0.2,0-0.4,0-0.6c6,3.4,12.9,5.4,20.3,5.6c-12-8-19.9-21.7-19.9-37.2c0-8.2,2.2-15.9,6.1-22.5
			c22.1,27.1,55,44.9,92.2,46.7c-0.8-3.3-1.2-6.7-1.2-10.2c0-24.7,20-44.7,44.7-44.7c12.9,0,24.5,5.4,32.6,14.1
			c10.2-2,19.8-5.7,28.4-10.9c-3.3,10.4-10.4,19.2-19.7,24.7c9-1.1,17.7-3.5,25.7-7C244.7,83.1,237.2,91,228.4,97.3z"/>
	</g>
</g>
<g id="Creative_Commons_License" display="none">
	
		<text id="Creative_Commons_License_1_" transform="matrix(1 0 0 1 -605 1683.0439)" display="inline" font-family="'MyriadPro-Regular'" font-size="12">With assets by Icomoon / CC BY</text>
</g>
</svg>
